<svg width="842" height="607" viewBox="0 0 842 607" fill="none" xmlns="http://www.w3.org/2000/svg">
<g clip-path="url(#clip0_13_17)">
<path d="M232.342 303.5C232.324 292.93 234.39 282.46 238.423 272.689C242.456 262.919 248.375 254.039 255.844 246.559C263.312 239.078 272.181 233.144 281.946 229.094C291.71 225.045 302.176 222.961 312.747 222.961H312.292C322.862 222.961 333.329 225.045 343.093 229.094C352.857 233.144 361.727 239.078 369.195 246.559C376.663 254.039 382.583 262.919 386.615 272.689C390.648 282.46 392.715 292.93 392.697 303.5C392.697 324.824 384.226 345.275 369.147 360.353C354.068 375.432 333.616 383.903 312.292 383.903H312.747C291.422 383.903 270.971 375.432 255.892 360.353C240.813 345.275 232.342 324.824 232.342 303.5ZM608.521 160.941H758.228C779.553 160.941 800.004 152.471 815.083 137.392C830.162 122.314 838.633 101.863 838.633 80.539C838.651 69.9689 836.584 59.499 832.552 49.7284C828.519 39.9577 822.599 31.0781 815.131 23.5976C807.663 16.1171 798.793 10.1824 789.029 6.13331C779.265 2.08417 768.798 -1.52341e-05 758.228 0L608.521 0C597.95 -1.52341e-05 587.484 2.08417 577.719 6.13331C567.955 10.1824 559.086 16.1171 551.617 23.5976C544.149 31.0781 538.23 39.9577 534.197 49.7284C530.164 59.499 528.098 69.9689 528.116 80.539C528.116 101.863 536.587 122.314 551.666 137.392C566.745 152.471 587.196 160.941 608.521 160.941ZM94.3291 606.864H385.098C406.422 606.864 426.874 598.393 441.953 583.314C457.031 568.236 465.503 547.785 465.503 526.461C465.521 515.891 463.454 505.421 459.421 495.651C455.389 485.88 449.469 477 442.001 469.52C434.533 462.039 425.663 456.105 415.899 452.055C406.135 448.006 395.668 445.922 385.098 445.922H94.3291C83.7587 445.922 73.292 448.006 63.5279 452.055C53.7638 456.105 44.894 462.039 37.4259 469.52C29.9578 477 24.0381 485.88 20.0054 495.651C15.9727 505.421 13.9062 515.891 13.9241 526.461C13.9241 547.785 22.3953 568.236 37.4742 583.314C52.5531 598.393 73.0044 606.864 94.3291 606.864ZM476.196 383.903H504.636L571.071 222.961H533.076L492.577 328.526H492.122L452.307 222.961H411.808L476.196 383.903ZM623.855 383.903H659.348V222.961H623.855V383.903ZM724.874 383.903H838.405V351.277H760.366V318.516H830.215V285.754H760.366V255.723H834.31V222.961H725.101L724.874 383.903ZM45.9587 161.078H81.4516V31.3966H127.41V0H0V31.3966H45.9587V161.078ZM177.464 161.078H212.957V91.4595H281.668V161.078H317.161V0H281.668V60.063H212.73V0H177.464V161.078ZM365.167 161.078H478.926V128.316H400.432V95.5547H470.281V62.7931H400.432V32.7616H474.376V0H365.167V161.078ZM5.68796 384.039H40.9533V260.5H41.4083L82.3617 384.039H109.209L151.527 260.5H151.982V384.039H187.475V222.961H134.008L96.6953 328.071H96.2403L59.1548 222.961H5.46044L5.68796 384.039ZM515.739 607H573.346C585.016 607.06 596.623 605.295 607.747 601.767C618.245 598.489 628.043 593.289 636.642 586.433C645.003 579.628 651.788 571.09 656.527 561.407C661.779 550.674 664.458 538.865 664.354 526.916C664.725 513.982 662.109 501.136 656.709 489.377C651.964 479.465 644.911 470.836 636.141 464.214C626.956 457.63 616.542 452.957 605.517 450.472C593.507 447.472 581.176 445.944 568.796 445.922H515.511L515.739 607ZM551.277 478.684H572.209C579.387 478.658 586.536 479.607 593.459 481.505C599.824 483.236 605.811 486.137 611.114 490.059C616.154 493.896 620.235 498.849 623.036 504.529C626.162 510.927 627.722 517.977 627.587 525.096C627.782 533.041 626.228 540.933 623.036 548.211C620.316 554.21 616.139 559.434 610.887 563.409C605.451 567.396 599.257 570.23 592.685 571.736C585.225 573.455 577.589 574.294 569.934 574.238H551.05L551.277 478.684ZM715.727 607H781.708C788.941 606.984 796.154 606.222 803.231 604.725C810.091 603.357 816.664 600.817 822.661 597.217C828.356 593.819 833.184 589.147 836.767 583.566C840.604 577.144 842.5 569.748 842.228 562.271C842.267 557.308 841.42 552.377 839.725 547.711C838.154 543.304 835.726 539.253 832.581 535.789C829.415 532.321 825.635 529.467 821.432 527.371C816.898 525.056 812.006 523.517 806.962 522.821V522.366C814.777 520.119 821.777 515.663 827.12 509.534C832.353 503.136 835.057 495.041 834.719 486.783C835.082 479.37 833.262 472.014 829.487 465.625C826.098 460.364 821.392 456.081 815.835 453.202C809.893 450.166 803.476 448.166 796.86 447.287C789.878 446.328 782.84 445.842 775.792 445.831H715.727V607ZM751.22 475.954H775.337C778.16 475.969 780.977 476.228 783.755 476.727C786.456 477.198 789.066 478.088 791.491 479.366C793.763 480.577 795.689 482.346 797.088 484.508C798.609 486.994 799.353 489.878 799.227 492.789C799.307 495.639 798.649 498.46 797.315 500.98C796.085 503.201 794.317 505.078 792.174 506.44C789.988 507.845 787.568 508.846 785.029 509.398C782.371 509.997 779.655 510.303 776.93 510.308H750.811L751.22 475.954ZM751.22 540.339H778.067C781.189 540.355 784.305 540.583 787.396 541.022C790.527 541.449 793.587 542.29 796.496 543.524C799.298 544.673 801.77 546.503 803.686 548.848C805.643 551.468 806.639 554.681 806.507 557.949C806.623 561.047 805.883 564.116 804.369 566.822C802.974 569.191 801.06 571.213 798.772 572.737C796.465 574.273 793.885 575.354 791.172 575.922C788.436 576.512 785.645 576.817 782.845 576.832H750.993L751.22 540.339Z" fill="url(#paint0_linear_13_17)"/>
</g>
<defs>
<linearGradient id="paint0_linear_13_17" x1="0" y1="303.5" x2="842" y2="303.5" gradientUnits="userSpaceOnUse">
<stop stop-color="#90CEA1"/>
<stop offset="0.56" stop-color="#3CBEC9"/>
<stop offset="1" stop-color="#00B3E5"/>
</linearGradient>
<clipPath id="clip0_13_17">
<rect width="842" height="607" fill="white"/>
</clipPath>
</defs>
</svg>
